<svg xmlns="http://www.w3.org/2000/svg" width="303.278" height="480.459" viewBox="0 0 303.278 480.459"><g fill="#38bdf8"><path d="M137.24 18.519c-5.106 0-9.26-4.154-9.26-9.259S132.134 0 137.24 0s9.26 4.154 9.26 9.26-4.154 9.259-9.26 9.259M172.638 43.444c-6.753 0-12.246-5.495-12.246-12.247s5.493-12.247 12.246-12.247c6.752 0 12.246 5.495 12.246 12.247s-5.494 12.247-12.246 12.247M146.763 57.931a6.397 6.397 0 0 1-6.391-6.39 6.397 6.397 0 0 1 6.391-6.391 6.4 6.4 0 0 1 6.391 6.391 6.397 6.397 0 0 1-6.391 6.39M82.492 89.847c0-13.129 9.054-23.811 21.524-26.541 2.037-.464 4.405-.709 6.607-.709h82.264c15.643 0 27.896 11.969 27.896 27.25 0 10.709-6.038 19.799-15.043 24.239-1.071.545-2.332 1.045-3.485 1.449-1.126.395-2.327.86-3.52 1.11q-.814.197-1.646.356c-1 3.531-2.599 12.172-3.13 32.216-.406 15.298.041 29.398.046 29.556l.009.22-.003.221c-.006.514-.344 41.908 15.595 69.655 49.695 86.505 73.169 132.123 84.152 156.726 9.38 21.026 9.475 26.364 9.505 29.364l.006.671a182 182 0 0 1-.006 3.996c-.124 9.88-1.178 20.401-10.268 28.413-9.741 8.586-27.155 12.42-56.405 12.42H66.81c-1.07 0-2.247-.006-3.284-.017-27.351-.27-43.86-4.132-53.244-12.402C1.199 460.033.139 449.524.014 439.65l-.007-.704c-.009-1.101-.009-2.202.001-3.315l.005-.669c.03-3.003.123-8.348 9.534-29.433 10.996-24.618 34.473-70.233 84.123-156.66 16.02-27.885 15.602-69.249 15.596-69.663l-.003-.219.006-.221c.008-.205.452-14.279.047-29.549-.532-20.069-2.134-28.712-3.136-32.237q-.555-.105-1.102-.228c-1.223-.231-2.456-.681-3.609-1.064-1.19-.394-2.485-.886-3.588-1.429-9.197-4.38-15.389-13.566-15.389-24.412m18.293 0c0 4.982 3.976 8.76 9.27 8.86 3.196.062 6.266 1.398 8.673 3.743.966.942 1.928 2.133 2.832 3.841 2.814 5.361 5.226 15.837 5.988 40.547.487 15.757.072 30.34.012 32.321l.001.201c.028 4.736-.234 44.425-16.038 74.962a99 99 0 0 1-2.073 3.803c-8.304 14.456-29.573 51.484-49.668 88.72q-1.423 2.633-2.833 5.266c-26.566 49.529-35.29 70.434-37.685 78.558-.078.257-.152.531-.219.762-.596 2.106-.744 3.249-.753 3.862v.671c.002 9.657.204 14.931 4.086 18.352 5.907 5.207 20.747 7.841 44.201 7.85h170.116c23.455-.009 38.296-2.643 44.203-7.85 3.881-3.419 4.084-8.692 4.086-18.346v-.678c-.011-.63-.166-1.818-.803-4.036-.065-.217-.134-.476-.209-.715-2.441-8.201-11.21-29.142-37.636-78.412a1888 1888 0 0 0-3.092-5.747c-20.005-37.048-41.12-73.813-49.398-88.222a99 99 0 0 1-2.535-4.705c-15.597-30.868-15.628-70.568-15.595-74.287l-.006-.208c-.078-2.606-.456-16.81.017-32.122.775-25.115 3.254-35.532 6.131-40.815.857-1.562 1.764-2.679 2.676-3.572q.14-.14.286-.273c2.364-2.179 5.33-3.41 8.405-3.473 5.292-.101 9.267-3.878 9.267-8.858 0-5.101-4.135-8.957-9.604-8.957h-75.491c-.108 0-7.215.026-7.301.073-5.317.096-9.31 3.886-9.31 8.884"/><path d="M168.518 102.377a6.31 6.31 0 0 1-6.305-6.305 6.31 6.31 0 0 1 6.305-6.305 6.31 6.31 0 0 1 6.305 6.305 6.31 6.31 0 0 1-6.305 6.305M142.45 125.609a6.42 6.42 0 0 1-6.412-6.412 6.42 6.42 0 0 1 6.412-6.412 6.42 6.42 0 0 1 6.412 6.412 6.42 6.42 0 0 1-6.412 6.412M159.888 162.061c-4.676 0-8.481-3.804-8.481-8.481s3.805-8.48 8.481-8.48 8.481 3.804 8.481 8.48-3.805 8.481-8.481 8.481M146.763 220.426c-5.984 0-10.853-4.869-10.853-10.854s4.869-10.854 10.853-10.854 10.854 4.869 10.854 10.854-4.87 10.854-10.854 10.854M168.518 260.604c-4.36 0-7.907-3.548-7.907-7.907 0-4.36 3.547-7.908 7.907-7.908s7.907 3.548 7.907 7.908c0 4.359-3.547 7.907-7.907 7.907M133.638 297.733c-5.878 0-10.661-4.782-10.661-10.661s4.783-10.66 10.661-10.66 10.66 4.782 10.66 10.66-4.783 10.661-10.66 10.661M85.245 318.126c.914-.871 5.692-3.962 10.189-5.043 1.054-.253 2.113-.386 3.123-.362 2.093.049 4.32.867 6.768 2.043 4.482 2.149 9.751 5.484 16.453 7.398 1.903.545 4.201.697 6.786.558 8.994-.478 21.365-4.485 31.834-7.568 3.158-.93 6.142-1.775 8.807-2.413 1.317-.316 2.756-.522 4.285-.63 1.695-.12 3.534-.117 5.476-.011 13.868.773 32.369 6.71 39.533 8.843q.737.22 1.306.381c42.786 77.339 54.35 105.563 56.259 112.692.534 1.994.418 5.568.326 7.951q-.012.285-.02.555c-.089 2.214-1.05 4.355-2.561 5.8-.096.086-.195.196-.296.277a7.3 7.3 0 0 1-2.634 1.507c-9.465 3.032-23.802 3.557-34.291 3.557h-169.9c-10.466 0-24.822-.523-34.29-3.556a7.3 7.3 0 0 1-2.615-1.493c-1.695-1.506-2.789-3.823-2.871-6.151-.158-4.565-.122-6.896.298-8.486 2.133-7.947 9.212-28.539 58.035-115.85"/></g></svg>